<?xml version="1.0" encoding="UTF-8" standalone="no"?>
<!DOCTYPE svg PUBLIC "-//W3C//DTD SVG 1.1//EN" "http://www.w3.org/Graphics/SVG/1.1/DTD/svg11.dtd">
<svg version="1.1" xmlns="http://www.w3.org/2000/svg" xmlns:xlink="http://www.w3.org/1999/xlink" preserveAspectRatio="xMidYMid meet" viewBox="0 0 640 640" width="640" height="640"><defs><path d="M530.55 379.12C519.71 375.97 433.01 350.77 422.17 347.62C420.3 347.25 418.8 346.87 416.55 346.87C410.13 346.95 378 347.32 320.17 348C256.95 348.67 221.82 349.05 214.8 349.12C212.92 349.12 211.42 349.5 209.55 349.87C199.5 352.84 119.1 376.54 109.05 379.5C78.68 389.63 60.68 421.87 68.55 451.87C71.85 469.19 98.25 607.69 101.55 625C103.42 633.62 113.92 640 122.92 640C162.64 640 480.34 640 520.05 640C529.05 640 536.55 633.62 538.43 625C541.73 607.8 568.12 470.2 571.42 453C579.3 421.87 561.67 389.62 531.3 379.5C530.92 379.5 530.92 379.5 530.55 379.12Z" id="bAqIM4kmd"></path><path d="M538.43 625C536.55 633.62 529.05 640 520.05 640C506.73 640 440.1 640 320.17 640L320.17 348C378 347.32 410.13 346.95 416.55 346.87C418.8 346.87 420.3 347.25 422.17 347.62C433.01 350.77 519.71 375.97 530.55 379.12C530.92 379.5 530.92 379.5 531.3 379.5C561.67 389.62 579.3 421.87 571.42 453C564.82 487.4 541.73 607.8 538.43 625Z" id="aqXuIr31M"></path><path d="M401.55 65.62C384.67 94.5 353.55 112.5 320.17 112.5C308.92 112.5 218.92 112.5 207.67 112.5C197.17 112.5 188.92 120.75 188.92 131.25C188.92 138.75 188.92 198.75 188.92 206.25C188.92 244.12 205.42 280.12 233.92 304.87C257.55 325.87 288.3 337.5 320.17 337.5C352.05 337.5 382.8 325.87 406.43 305.25C434.93 280.12 451.42 244.12 451.42 206.25C451.42 198.75 451.42 138.75 451.42 131.25C451.42 108.37 445.43 85.87 433.8 65.62C428.17 55.5 410.18 50.25 401.55 65.62Z" id="beoKKbQ9o"></path><path d="M451.42 206.25C451.42 244.12 434.93 280.12 406.43 305.25C382.8 325.87 352.05 337.5 320.17 337.5C320.17 315 320.17 135 320.17 112.5C353.55 112.5 384.67 94.5 401.55 65.62C410.18 50.25 428.17 55.5 433.8 65.62C445.43 85.87 451.42 108.37 451.42 131.25C451.42 146.25 451.42 198.75 451.42 206.25Z" id="a1dNaidbd6"></path><path d="M188.92 131.25C188.92 132.5 188.92 138.75 188.92 150C267.67 150 311.42 150 320.17 150C367.05 150 410.55 124.87 433.8 84.37C434.33 83.44 438.52 75.94 439.05 75C413.55 25.12 367.8 0 320.17 0C247.8 0 188.92 58.87 188.92 131.25Z" id="e1ybaGNT7c"></path><path d="M433.8 84.37C410.55 124.87 367.05 150 320.17 150C320.17 135 320.17 15 320.17 0C367.8 0 413.55 25.12 439.05 75C438 76.87 434.33 83.44 433.8 84.37Z" id="b1hUggDYFk"></path></defs><g><g><g><use xlink:href="#bAqIM4kmd" opacity="1" fill="#2f9bf2" fill-opacity="1"></use><g><use xlink:href="#bAqIM4kmd" opacity="1" fill-opacity="0" stroke="#000000" stroke-width="1" stroke-opacity="0"></use></g></g><g><use xlink:href="#aqXuIr31M" opacity="1" fill="#1689fc" fill-opacity="1"></use><g><use xlink:href="#aqXuIr31M" opacity="1" fill-opacity="0" stroke="#000000" stroke-width="1" stroke-opacity="0"></use></g></g><g><use xlink:href="#beoKKbQ9o" opacity="1" fill="#2f9bf2" fill-opacity="1"></use><g><use xlink:href="#beoKKbQ9o" opacity="1" fill-opacity="0" stroke="#000000" stroke-width="1" stroke-opacity="0"></use></g></g><g><use xlink:href="#a1dNaidbd6" opacity="1" fill="#2196f3" fill-opacity="1"></use><g><use xlink:href="#a1dNaidbd6" opacity="1" fill-opacity="0" stroke="#000000" stroke-width="1" stroke-opacity="0"></use></g></g><g><use xlink:href="#e1ybaGNT7c" opacity="1" fill="#1976d2" fill-opacity="1"></use><g><use xlink:href="#e1ybaGNT7c" opacity="1" fill-opacity="0" stroke="#000000" stroke-width="1" stroke-opacity="0"></use></g></g><g><use xlink:href="#b1hUggDYFk" opacity="1" fill="#136ef1" fill-opacity="1"></use><g><use xlink:href="#b1hUggDYFk" opacity="1" fill-opacity="0" stroke="#000000" stroke-width="1" stroke-opacity="0"></use></g></g></g></g></svg>