<?xml version="1.0" encoding="UTF-8" standalone="no"?>
<!DOCTYPE svg PUBLIC "-//W3C//DTD SVG 1.1//EN" "http://www.w3.org/Graphics/SVG/1.1/DTD/svg11.dtd">
<svg version="1.1" xmlns="http://www.w3.org/2000/svg" xmlns:xlink="http://www.w3.org/1999/xlink" preserveAspectRatio="xMidYMid meet" viewBox="0 0 550 550" width="550" height="550"><defs><path d="M492.29 503.59C447.69 503.59 90.91 503.59 46.31 503.59C34.05 503.59 24.1 490.86 24.1 475.12C24.1 459.41 34.05 446.66 46.31 446.66C61.18 446.66 135.51 446.66 269.3 446.66C372.42 458.43 429.71 464.96 441.16 466.27C453.42 466.27 514.5 459.41 514.5 475.12C514.5 490.86 504.55 503.59 492.29 503.59Z" id="g29IGUQwKj"></path><path d="M492.29 503.59C477.42 503.59 403.09 503.59 269.3 503.59L269.3 446.66C403.09 446.66 477.42 446.66 492.29 446.66C504.55 446.66 514.5 459.41 514.5 475.12C514.5 490.86 504.55 503.59 492.29 503.59Z" id="j2BOtJKNDl"></path><path d="M430.86 329.5C430.86 341.28 425.2 351.83 416.61 356.07C401.32 363.4 279 422.08 263.71 429.41C257.8 429.41 260.05 429.46 110.79 356.07C102.22 351.83 96.56 341.28 96.56 329.5C96.56 315.85 96.56 206.7 96.56 193.05C96.56 177.34 106.51 164.59 118.77 164.59C131.03 164.59 140.98 177.34 140.98 193.05C140.98 193.46 130.02 193.18 386.45 195.92C386.54 180.3 396.44 167.68 408.64 167.68C420.9 167.68 430.86 180.43 430.86 196.15C430.86 222.82 430.86 316.16 430.86 329.5Z" id="g1KjwBf6v1"></path><path d="M520.06 358.08C520.06 373.81 510.11 386.54 497.84 386.54C485.58 386.54 475.63 373.81 475.63 358.08C476.26 345.97 479.37 285.44 484.97 176.48C352.21 242.51 278.46 279.2 263.71 286.53C258.29 286.53 260.53 286.56 33.39 184.91C13.6 176.02 13.6 140.06 33.39 131.17C260.24 29.46 258.28 29.55 263.71 29.55C285.41 40.85 458.99 131.26 480.69 142.56C489.76 146.43 520.06 145.78 520.06 158.04C520.06 198.05 520.06 338.07 520.06 358.08Z" id="b46IukDZp"></path><path d="M520.06 358.08C520.06 373.81 510.11 386.54 497.84 386.54C485.58 386.54 475.63 373.81 475.63 358.08C475.63 342.02 475.63 213.59 475.63 197.53C268.28 286.62 268.91 286.53 263.71 286.53C263.71 260.84 263.71 55.25 263.71 29.55C268.87 29.55 266.46 29.55 504.86 131.04C513.94 134.91 520.06 145.78 520.06 158.04C520.06 198.05 520.06 338.07 520.06 358.08Z" id="fUNdzeRrl"></path></defs><g><g><g><use xlink:href="#g29IGUQwKj" opacity="1" fill="#37a1f5" fill-opacity="1"></use><g><use xlink:href="#g29IGUQwKj" opacity="1" fill-opacity="0" stroke="#000000" stroke-width="1" stroke-opacity="0"></use></g></g><g><use xlink:href="#j2BOtJKNDl" opacity="1" fill="#1976d2" fill-opacity="1"></use><g><use xlink:href="#j2BOtJKNDl" opacity="1" fill-opacity="0" stroke="#000000" stroke-width="1" stroke-opacity="0"></use></g></g><g><use xlink:href="#g1KjwBf6v1" opacity="1" fill="#37a1f5" fill-opacity="1"></use><g><use xlink:href="#g1KjwBf6v1" opacity="1" fill-opacity="0" stroke="#000000" stroke-width="1" stroke-opacity="0"></use></g></g><g><use xlink:href="#b46IukDZp" opacity="1" fill="#2196f3" fill-opacity="1"></use><g><use xlink:href="#b46IukDZp" opacity="1" fill-opacity="0" stroke="#000000" stroke-width="1" stroke-opacity="0"></use></g></g><g><use xlink:href="#fUNdzeRrl" opacity="1" fill="#1976d2" fill-opacity="1"></use><g><use xlink:href="#fUNdzeRrl" opacity="1" fill-opacity="0" stroke="#000000" stroke-width="1" stroke-opacity="0"></use></g></g></g></g></svg>