<?xml version="1.0" encoding="UTF-8" standalone="no"?>
<!DOCTYPE svg PUBLIC "-//W3C//DTD SVG 1.1//EN" "http://www.w3.org/Graphics/SVG/1.1/DTD/svg11.dtd">
<svg version="1.1" xmlns="http://www.w3.org/2000/svg" xmlns:xlink="http://www.w3.org/1999/xlink" preserveAspectRatio="xMidYMid meet" viewBox="0 0 550 550" width="550" height="550"><defs><path d="M521.21 462.36C507.12 462.36 436.65 462.36 309.81 462.36L309.81 426.99C436.65 426.99 507.12 426.99 521.21 426.99C532.84 426.99 542.27 434.91 542.27 444.67C542.27 454.45 532.84 462.36 521.21 462.36Z" id="czVc2XSSC"></path><path d="M-61.61 244.28C-61.61 260.02 -71.56 272.75 -83.82 272.75C-96.08 272.75 -106.03 260.02 -106.03 244.28C-105.41 232.18 -102.3 171.64 -96.7 62.68C-229.46 128.72 -303.21 165.4 -317.96 172.74C-323.38 172.74 -321.14 172.77 -548.28 71.12C-568.07 62.23 -568.07 26.27 -548.28 17.38C-321.43 -84.33 -323.38 -84.24 -317.96 -84.24C-296.26 -72.94 -122.68 17.46 -100.98 28.77C-91.91 32.64 -61.61 31.99 -61.61 44.25C-61.61 84.26 -61.61 224.28 -61.61 244.28Z" id="b2Ybqm6Pt"></path><path d="M529.65 428.88C410.89 428.88 344.91 428.88 331.72 428.88C326.28 407.84 309.68 391.24 288.65 385.81C288.65 382.81 288.65 367.85 288.65 340.91L268.65 340.91L263.65 443.87C269.65 479.86 272.98 499.84 273.65 503.84C301.54 503.84 325.04 484.71 331.72 458.88C344.91 458.88 410.89 458.88 529.65 458.88L529.65 428.88Z" id="b3yyFYESul"></path><path d="M258.65 340.91C258.65 367.85 258.65 382.81 258.65 385.81C237.61 391.24 221.02 407.84 215.58 428.88C202.38 428.88 136.41 428.88 17.65 428.88L17.65 458.88C136.41 458.88 202.38 458.88 215.58 458.88C222.26 484.71 245.76 503.84 273.65 503.84C273.65 492.98 273.65 438.67 273.65 340.91L258.65 340.91Z" id="a94ynZR3G"></path><path d="M403.08 125.96C391.44 96.79 372.02 71.65 346.45 52.79C324.7 36.74 299.92 26.35 273.65 22.1C272.98 33.77 269.65 92.11 263.65 197.12L273.65 352.13C359.4 352.13 407.03 352.13 416.56 352.13C478.92 352.13 529.65 301.4 529.65 239.04C529.65 176.69 478.92 125.96 416.56 125.96C413.86 125.96 404.43 125.96 403.08 125.96Z" id="bc0bHEvg5"></path><path d="M78.89 168.16C42.35 182.02 17.65 217.16 17.65 257.04C17.65 309.47 60.3 352.13 112.73 352.13C123.46 352.13 177.1 352.13 273.65 352.13C273.65 154.11 273.65 44.1 273.65 22.1C264.71 20.66 255.6 19.92 246.38 19.92C160.71 19.92 89.06 84.23 78.89 168.16Z" id="a1MjCrgI8"></path><path d="M288.65 269.91L288.65 239.91L273.65 239.91L269.65 254.91L273.65 269.91L288.65 269.91Z" id="dSwMkdNnl"></path><path d="M270.65 179.41C272.45 188.51 273.45 193.56 273.65 194.57C298.64 194.57 318.98 214.91 318.98 239.91C321.98 239.91 345.98 239.91 348.98 239.91C348.98 198.37 315.19 164.57 273.65 164.57C273.25 166.55 272.25 171.5 270.65 179.41Z" id="b52OxqRxNQ"></path><path d="M228.31 239.91C228.31 214.91 248.65 194.57 273.65 194.57C273.65 191.57 273.65 167.57 273.65 164.57C232.11 164.57 198.31 198.37 198.31 239.91C204.31 239.91 225.31 239.91 228.31 239.91Z" id="a1bfyJ3Uup"></path><path d="M258.65 239.91L273.65 239.91L273.65 269.91L258.65 269.91L258.65 239.91Z" id="e6fvnmH65"></path><path d="M24.58 462.36C38.67 462.36 109.14 462.36 235.98 462.36L235.98 426.99C109.14 426.99 38.67 426.99 24.58 426.99C12.96 426.99 3.52 434.91 3.52 444.67C3.52 454.45 12.96 462.36 24.58 462.36Z" id="d17pArzNoq"></path></defs><g><g><g><use xlink:href="#czVc2XSSC" opacity="1" fill="#1976d2" fill-opacity="1"></use><g><use xlink:href="#czVc2XSSC" opacity="1" fill-opacity="0" stroke="#000000" stroke-width="1" stroke-opacity="0"></use></g></g><g><use xlink:href="#b2Ybqm6Pt" opacity="1" fill="#2196f3" fill-opacity="1"></use><g><use xlink:href="#b2Ybqm6Pt" opacity="1" fill-opacity="0" stroke="#000000" stroke-width="1" stroke-opacity="0"></use></g></g><g><use xlink:href="#b3yyFYESul" opacity="1" fill="#1976d2" fill-opacity="1"></use><g><use xlink:href="#b3yyFYESul" opacity="1" fill-opacity="0" stroke="#000000" stroke-width="1" stroke-opacity="0"></use></g></g><g><use xlink:href="#a94ynZR3G" opacity="1" fill="#37a1f5" fill-opacity="1"></use><g><use xlink:href="#a94ynZR3G" opacity="1" fill-opacity="0" stroke="#000000" stroke-width="1" stroke-opacity="0"></use></g></g><g><use xlink:href="#bc0bHEvg5" opacity="1" fill="#1976d2" fill-opacity="1"></use><g><use xlink:href="#bc0bHEvg5" opacity="1" fill-opacity="0" stroke="#000000" stroke-width="1" stroke-opacity="0"></use></g></g><g><use xlink:href="#a1MjCrgI8" opacity="1" fill="#37a1f5" fill-opacity="1"></use><g><use xlink:href="#a1MjCrgI8" opacity="1" fill-opacity="0" stroke="#000000" stroke-width="1" stroke-opacity="0"></use></g></g><g><use xlink:href="#dSwMkdNnl" opacity="1" fill="#166abd" fill-opacity="1"></use><g><use xlink:href="#dSwMkdNnl" opacity="1" fill-opacity="0" stroke="#000000" stroke-width="1" stroke-opacity="0"></use></g></g><g><use xlink:href="#b52OxqRxNQ" opacity="1" fill="#166abd" fill-opacity="1"></use><g><use xlink:href="#b52OxqRxNQ" opacity="1" fill-opacity="0" stroke="#000000" stroke-width="1" stroke-opacity="0"></use></g></g><g><use xlink:href="#a1bfyJ3Uup" opacity="1" fill="#2d7ac5" fill-opacity="1"></use><g><use xlink:href="#a1bfyJ3Uup" opacity="1" fill-opacity="0" stroke="#000000" stroke-width="1" stroke-opacity="0"></use></g></g><g><use xlink:href="#e6fvnmH65" opacity="1" fill="#2d7ac5" fill-opacity="1"></use><g><use xlink:href="#e6fvnmH65" opacity="1" fill-opacity="0" stroke="#000000" stroke-width="1" stroke-opacity="0"></use></g></g><g><use xlink:href="#d17pArzNoq" opacity="1" fill="#37a1f5" fill-opacity="1"></use><g><use xlink:href="#d17pArzNoq" opacity="1" fill-opacity="0" stroke="#000000" stroke-width="1" stroke-opacity="0"></use></g></g></g></g></svg>