<?xml version="1.0" encoding="UTF-8" standalone="no"?>
<!DOCTYPE svg PUBLIC "-//W3C//DTD SVG 1.1//EN" "http://www.w3.org/Graphics/SVG/1.1/DTD/svg11.dtd">
<svg version="1.1" xmlns="http://www.w3.org/2000/svg" xmlns:xlink="http://www.w3.org/1999/xlink" preserveAspectRatio="xMidYMid meet" viewBox="0 0 13 13" width="13" height="13"><defs><path d="M7.89 3.22C7.88 3.21 7.87 3.22 7.86 3.23C7.78 3.38 7.68 3.57 7.62 3.73C6.87 3.62 6.12 3.62 5.39 3.73C5.32 3.57 5.22 3.38 5.14 3.23C5.13 3.22 5.12 3.21 5.1 3.22C4.41 3.33 3.74 3.54 3.12 3.82C3.11 3.82 3.11 3.83 3.11 3.83C1.84 5.68 1.49 7.49 1.66 9.28C1.67 9.28 1.67 9.29 1.68 9.3C2.51 9.9 3.32 10.26 4.11 10.51C4.13 10.51 4.14 10.51 4.15 10.5C4.33 10.24 4.5 9.98 4.64 9.7C4.65 9.68 4.65 9.66 4.63 9.66C4.36 9.56 4.11 9.44 3.87 9.3C3.85 9.29 3.85 9.26 3.86 9.25C3.92 9.21 3.97 9.17 4.02 9.14C4.02 9.13 4.04 9.13 4.05 9.13C5.64 9.85 7.37 9.85 8.95 9.13C8.96 9.13 8.97 9.13 8.98 9.13C9.03 9.17 9.08 9.21 9.13 9.25C9.15 9.26 9.15 9.29 9.13 9.3C8.88 9.44 8.63 9.56 8.37 9.66C8.35 9.66 8.34 9.68 8.35 9.7C8.5 9.98 8.66 10.24 8.85 10.49C8.86 10.51 8.87 10.51 8.88 10.51C9.68 10.26 10.49 9.9 11.32 9.3C11.33 9.29 11.33 9.29 11.33 9.28C11.54 7.21 10.99 5.42 9.89 3.83C9.89 3.83 9.88 3.82 9.88 3.82C9.26 3.54 8.59 3.33 7.89 3.22ZM4.01 7.22C4.01 6.69 4.39 6.26 4.88 6.26C5.37 6.26 5.77 6.7 5.76 7.22C5.76 7.76 5.37 8.19 4.88 8.19C4.4 8.19 4.01 7.76 4.01 7.22ZM7.25 7.22C7.25 6.69 7.63 6.26 8.12 6.26C8.62 6.26 9.01 6.7 9 7.22C9 7.76 8.62 8.19 8.12 8.19C7.64 8.19 7.25 7.76 7.25 7.22Z" id="c1BJ0InQ85"></path><path d="M5.2 8C5.2 8 5.2 8 5.2 8C7 6.27 8 5.31 8.2 5.12C8.2 5.12 8.2 5.12 8.2 5.12C8.58 5.48 8.79 5.68 8.83 5.72C8.83 5.72 8.83 5.72 8.83 5.72C7.03 7.45 6.03 8.41 5.83 8.6C5.83 8.6 5.83 8.6 5.83 8.6C5.45 8.24 5.25 8.04 5.2 8Z" id="eVO82Mj3I"></path><path d="M5.52 8.3C5.52 8.3 5.52 8.3 5.52 8.3C7.32 6.57 8.32 5.61 8.52 5.42C8.52 5.42 8.52 5.42 8.52 5.42C8.71 5.6 8.81 5.7 8.83 5.72C8.83 5.72 8.83 5.72 8.83 5.72C7.03 7.45 6.03 8.41 5.83 8.6C5.83 8.6 5.83 8.6 5.83 8.6C5.64 8.42 5.54 8.32 5.52 8.3Z" id="a2KAF6kv1m"></path><path d="M3.07 10.12C2.96 10.01 2.96 9.83 3.07 9.71C3.29 9.5 5.06 7.81 5.28 7.6C5.39 7.49 5.58 7.49 5.7 7.6C5.76 7.65 6.19 8.07 6.25 8.12C6.37 8.24 6.37 8.42 6.25 8.53C6.03 8.75 4.27 10.44 4.05 10.65C3.93 10.76 3.74 10.76 3.62 10.65C3.51 10.54 3.13 10.18 3.07 10.12Z" id="a5zejZ3i1"></path><path d="M5.71 7.61C5.83 7.72 5.83 7.9 5.71 8.02C5.49 8.23 3.73 9.92 3.51 10.13C3.39 10.24 3.2 10.24 3.08 10.13C3.14 10.18 3.57 10.6 3.62 10.65C3.74 10.76 3.93 10.76 4.05 10.65C4.27 10.44 6.03 8.75 6.25 8.53C6.37 8.42 6.37 8.24 6.25 8.12C6.14 8.02 5.76 7.66 5.71 7.61Z" id="d4JUJrbtep"></path><path d="M10.53 5.42C10.51 5.4 10.34 5.24 10.32 5.22C10.23 5.13 10.21 5.01 10.27 4.91C10.3 4.85 10.29 4.78 10.24 4.74C10.11 4.61 9.85 4.36 9.6 4.12C9.19 3.73 8.68 3.47 8.12 3.37C7.99 3.35 7.02 3.17 6.89 3.15C6.82 3.13 6.78 3.23 6.84 3.27C6.95 3.34 7.83 3.88 7.94 3.95C8.26 4.15 8.33 4.57 8.08 4.85C8.06 4.87 7.92 5.04 7.9 5.06C7.85 5.12 7.85 5.2 7.91 5.26C7.98 5.33 8.6 5.92 8.67 5.99C8.73 6.05 8.83 6.05 8.89 6C8.91 5.98 9.08 5.83 9.1 5.82C9.33 5.63 9.67 5.65 9.88 5.85C9.89 5.86 9.92 5.89 9.98 5.95C9.98 5.95 9.98 5.95 9.98 5.95C9.89 6.11 9.92 6.3 10.05 6.42C10.08 6.45 10.33 6.69 10.36 6.72C10.42 6.77 10.51 6.77 10.57 6.72C10.65 6.65 11.26 6.06 11.33 5.99C11.39 5.93 11.39 5.84 11.33 5.79C11.31 5.77 11.21 5.67 11.02 5.49C10.81 5.38 10.64 5.36 10.53 5.42Z" id="a3hrS9ZM7t"></path><path d="M11.02 5.49C10.89 5.37 10.7 5.33 10.53 5.42C10.53 5.42 10.53 5.42 10.53 5.42L9.98 5.95L9.98 5.95C9.98 5.95 9.98 5.95 9.98 5.95C9.89 6.11 9.92 6.3 10.05 6.42C10.08 6.45 10.33 6.69 10.36 6.72C10.42 6.77 10.51 6.77 10.57 6.72C10.65 6.65 11.26 6.06 11.33 5.99C11.39 5.93 11.39 5.84 11.33 5.79C11.27 5.73 11.05 5.52 11.02 5.49Z" id="kzeKq6CJq"></path><path d="M9.98 5.95L9.98 5.95C9.98 5.95 9.98 5.95 9.98 5.95C9.89 6.11 9.92 6.3 10.05 6.42C10.08 6.45 10.33 6.69 10.36 6.72C10.42 6.77 10.51 6.77 10.57 6.72C10.6 6.69 10.72 6.57 10.95 6.35L10.26 5.69L9.98 5.95Z" id="b1nL071Xzn"></path></defs><g><g><g><use xlink:href="#c1BJ0InQ85" opacity="1" fill="#ffffff" fill-opacity="1"></use><g><use xlink:href="#c1BJ0InQ85" opacity="1" fill-opacity="0" stroke="#000000" stroke-width="1" stroke-opacity="0"></use></g></g><g><use xlink:href="#eVO82Mj3I" opacity="1" fill="#ccc8ca" fill-opacity="1"></use><g><use xlink:href="#eVO82Mj3I" opacity="1" fill-opacity="0" stroke="#000000" stroke-width="1" stroke-opacity="0"></use></g></g><g><use xlink:href="#a2KAF6kv1m" opacity="1" fill="#bfbebe" fill-opacity="1"></use><g><use xlink:href="#a2KAF6kv1m" opacity="1" fill-opacity="0" stroke="#000000" stroke-width="1" stroke-opacity="0"></use></g></g><g><use xlink:href="#a5zejZ3i1" opacity="1" fill="#2d5872" fill-opacity="1"></use><g><use xlink:href="#a5zejZ3i1" opacity="1" fill-opacity="0" stroke="#000000" stroke-width="1" stroke-opacity="0"></use></g></g><g><use xlink:href="#d4JUJrbtep" opacity="1" fill="#234c60" fill-opacity="1"></use><g><use xlink:href="#d4JUJrbtep" opacity="1" fill-opacity="0" stroke="#000000" stroke-width="1" stroke-opacity="0"></use></g></g><g><use xlink:href="#a3hrS9ZM7t" opacity="1" fill="#ff4c4c" fill-opacity="1"></use><g><use xlink:href="#a3hrS9ZM7t" opacity="1" fill-opacity="0" stroke="#000000" stroke-width="1" stroke-opacity="0"></use></g></g><g><use xlink:href="#kzeKq6CJq" opacity="1" fill="#f33939" fill-opacity="1"></use><g><use xlink:href="#kzeKq6CJq" opacity="1" fill-opacity="0" stroke="#000000" stroke-width="1" stroke-opacity="0"></use></g></g><g><use xlink:href="#b1nL071Xzn" opacity="1" fill="#e53030" fill-opacity="1"></use><g><use xlink:href="#b1nL071Xzn" opacity="1" fill-opacity="0" stroke="#000000" stroke-width="1" stroke-opacity="0"></use></g></g></g></g></svg>