<?xml version="1.0" encoding="UTF-8" standalone="no"?>
<!DOCTYPE svg PUBLIC "-//W3C//DTD SVG 1.1//EN" "http://www.w3.org/Graphics/SVG/1.1/DTD/svg11.dtd">
<svg version="1.1" xmlns="http://www.w3.org/2000/svg" xmlns:xlink="http://www.w3.org/1999/xlink" preserveAspectRatio="xMidYMid meet" viewBox="0 0 640 640" width="640" height="640"><defs><path d="M435.37 414.92C470.61 373.33 492.27 318.51 492.27 258.27C492.27 128.92 393.26 23.68 271.57 23.68C149.88 23.68 50.88 128.92 50.88 258.27C50.88 387.62 149.88 492.85 271.57 492.85C328.24 492.85 379.83 469.83 418.95 432.38C435.91 450.41 571.63 594.67 588.59 612.7C590.86 615.11 593.83 616.32 596.81 616.32C599.78 616.32 602.75 615.11 605.02 612.7C609.56 607.88 609.56 600.06 605.02 595.24C571.09 559.18 452.34 432.95 435.37 414.92ZM74.11 258.27C74.11 142.53 162.7 48.38 271.57 48.38C380.44 48.38 469.04 142.53 469.04 258.27C469.04 374 380.44 468.16 271.57 468.16C162.7 468.16 74.11 374 74.11 258.27Z" id="f98Uxji0M"></path></defs><g><g><g><use xlink:href="#f98Uxji0M" opacity="1" fill="#dedede" fill-opacity="1"></use><g><use xlink:href="#f98Uxji0M" opacity="1" fill-opacity="0" stroke="#000000" stroke-width="1" stroke-opacity="0"></use></g></g></g></g></svg>