<?xml version="1.0" encoding="UTF-8" standalone="no"?>
<!DOCTYPE svg PUBLIC "-//W3C//DTD SVG 1.1//EN" "http://www.w3.org/Graphics/SVG/1.1/DTD/svg11.dtd">
<svg version="1.1" xmlns="http://www.w3.org/2000/svg" xmlns:xlink="http://www.w3.org/1999/xlink" preserveAspectRatio="xMidYMid meet" viewBox="0 0 640 640" width="640" height="640"><defs><path d="M595.25 193.98C591.18 197.92 558.58 229.45 554.51 233.39C537.89 249.45 510.95 249.44 494.34 233.37C477.74 217.3 477.74 191.27 494.34 175.21C498.4 171.28 530.89 139.87 534.95 135.94C548.24 123.09 539.31 101.64 520.56 100.29C507.89 99.4 495.16 100.48 482.84 103.5C435.75 114.86 399.02 154.06 392.71 200.6C390.79 214.56 391.47 228.74 394.71 242.47C378.46 258.18 297.22 336.75 150.99 478.17L241.23 565.44C387.47 424.02 468.71 345.45 484.96 329.74C499.15 332.88 513.81 333.53 528.24 331.68C576.37 325.57 616.91 290.06 628.66 244.52C631.99 231.78 633.04 218.59 631.75 205.52C631.75 205.52 631.75 205.52 631.75 205.52C615.72 189.79 603.56 185.95 595.25 193.98Z" id="aqISSoU45"></path><path d="M605.45 349.09C624.53 349.09 640 362.02 640 377.98C640 377.98 640 377.98 640 377.98C640 482 640 539.79 640 551.35C640 583.27 609.07 609.14 570.91 609.14C543.27 609.14 405.09 609.14 156.35 609.14L156.35 609.14L156.36 349.09L156.36 349.09L156.36 349.09C425.82 349.09 575.52 349.09 605.45 349.09Z" id="b1rb3XKfvh"></path><path d="M154.5 134.41C154.27 134.41 152.4 134.41 152.17 134.41C133.89 134.41 116.61 142.6 105.19 156.67C96.28 167.66 25.01 255.52 16.11 266.5C7.58 277.03 2.92 290.1 2.92 303.58C2.92 328.2 2.92 525.18 2.92 549.8C2.92 582.57 29.86 609.14 63.09 609.14C63.09 609.14 63.09 609.14 63.09 609.14C171.38 609.14 231.54 609.14 243.58 609.14C276.8 609.14 303.74 582.57 303.74 549.8C303.74 549.8 303.74 549.8 303.74 549.8C303.74 402.07 303.74 319.99 303.74 303.58C303.74 290.1 299.09 277.03 290.56 266.5C290.56 266.5 290.56 266.5 290.56 266.5C237.11 200.6 207.42 163.99 201.47 156.67C190.06 142.6 172.78 134.41 154.5 134.41Z" id="b1Pdipmxi"></path></defs><g><g><g><use xlink:href="#aqISSoU45" opacity="1" fill="#1976d2" fill-opacity="1"></use><g><use xlink:href="#aqISSoU45" opacity="1" fill-opacity="0" stroke="#000000" stroke-width="1" stroke-opacity="0"></use></g></g><g><use xlink:href="#b1rb3XKfvh" opacity="1" fill="#1976d2" fill-opacity="1"></use><g><use xlink:href="#b1rb3XKfvh" opacity="1" fill-opacity="0" stroke="#000000" stroke-width="1" stroke-opacity="0"></use></g></g><g><use xlink:href="#b1Pdipmxi" opacity="1" fill="#198fec" fill-opacity="1"></use><g><use xlink:href="#b1Pdipmxi" opacity="1" fill-opacity="0" stroke="#000000" stroke-width="1" stroke-opacity="0"></use></g></g></g></g></svg>