<?xml version="1.0" encoding="UTF-8" standalone="no"?>
<!DOCTYPE svg PUBLIC "-//W3C//DTD SVG 1.1//EN" "http://www.w3.org/Graphics/SVG/1.1/DTD/svg11.dtd">
<svg version="1.1" xmlns="http://www.w3.org/2000/svg" xmlns:xlink="http://www.w3.org/1999/xlink" preserveAspectRatio="xMidYMid meet" viewBox="0 0 640 640" width="640" height="640"><defs><path d="M151.25 168.75C151.25 261.8 226.95 337.5 320 337.5C413.05 337.5 488.75 261.8 488.75 168.75C488.75 75.7 413.05 0 320 0C226.95 0 151.25 75.7 151.25 168.75Z" id="bWhJ12i9o"></path><path d="M357.5 375C350 375 290 375 282.5 375C217.49 375 156.24 400.83 110.04 447.74C64.07 494.42 38.75 556.04 38.75 621.25C38.75 631.61 47.15 640 57.5 640C110 640 530 640 582.5 640C592.86 640 601.25 631.61 601.25 621.25C601.25 556.04 575.93 494.42 529.96 447.74C483.76 400.83 422.51 375 357.5 375Z" id="b1dK09lomw"></path></defs><g><g><g><use xlink:href="#bWhJ12i9o" opacity="1" fill="#dedede" fill-opacity="1"></use><g><use xlink:href="#bWhJ12i9o" opacity="1" fill-opacity="0" stroke="#000000" stroke-width="1" stroke-opacity="0"></use></g></g><g><use xlink:href="#b1dK09lomw" opacity="1" fill="#dedede" fill-opacity="1"></use><g><use xlink:href="#b1dK09lomw" opacity="1" fill-opacity="0" stroke="#000000" stroke-width="1" stroke-opacity="0"></use></g></g></g></g></svg>